<svg width="18" height="10" viewBox="0 0 18 10" fill="none" xmlns="http://www.w3.org/2000/svg">
<path d="M2.82997 5.00011L5.28997 2.54011C5.67997 2.15011 5.67997 1.52011 5.28997 1.13011C4.89997 0.740108 4.26997 0.740108 3.87997 1.13011L0.699971 4.30011C0.309971 4.69011 0.309971 5.32011 0.699971 5.71011L3.87997 8.88011C4.26997 9.27011 4.89997 9.27011 5.28997 8.88011C5.67997 8.49011 5.67997 7.86011 5.28997 7.47011L2.82997 5.00011ZM15.17 5.00011L12.71 7.46011C12.32 7.85011 12.32 8.48011 12.71 8.87011C13.1 9.26011 13.73 9.26011 14.12 8.87011L17.3 5.70011C17.69 5.31011 17.69 4.68011 17.3 4.29011L14.13 1.12011C13.74 0.730107 13.11 0.730107 12.72 1.12011C12.33 1.51011 12.33 2.14011 12.72 2.53011L15.17 5.00011Z" fill="#ADADAD"/>
</svg>
